<svg width="75" height="75" viewBox="0 0 75 75" fill="none" xmlns="http://www.w3.org/2000/svg">
<path d="M35.7052 12.6353C36.7387 13.5414 37.7894 14.5547 38.3791 15.8202C38.3791 16.0136 38.3791 16.2069 38.3791 16.4062C38.2231 16.4028 38.0672 16.3994 37.9065 16.3959C34.3733 16.341 31.4895 17.0735 28.8759 19.5373C26.8382 21.687 26.0654 24.3488 25.9279 27.246C22.3856 27.3657 18.7869 26.6933 16.0047 24.3335C14.706 23.1156 14.706 23.1156 14.3419 22.3823C14.2285 22.0923 14.2285 22.0923 13.9162 21.9726C13.314 21.9194 13.314 21.9194 12.7626 22.1282C12.4828 22.6101 12.5101 22.8846 12.5978 23.4374C12.8875 23.9697 13.2404 24.4336 13.6232 24.9022C13.6973 24.9931 13.7713 25.0839 13.8475 25.1775C15.6434 27.152 18.4344 28.1837 20.9475 28.8573C21.1227 28.9045 21.2979 28.9517 21.4785 29.0004C23.5811 29.477 26.004 29.5434 28.1252 29.1503C28.1217 29.0043 28.1217 29.0043 28.1182 28.8555C28.0563 25.843 28.2567 23.3916 30.2853 20.9935C31.8578 19.3774 33.8052 18.5931 36.0354 18.4569C38.0772 18.4393 39.6433 18.9283 41.1383 20.3183C42.3218 21.5457 43.0959 23.3383 43.0666 25.0487C42.993 25.0862 42.9195 25.1237 42.8437 25.1623C38.6708 27.2972 33.4284 30.2235 31.8605 34.9547C31.3272 37.1047 31.6381 39.1865 32.1554 41.3038C32.2511 41.7031 32.3315 42.1048 32.4099 42.5078C32.4461 42.6921 32.4824 42.8764 32.5197 43.0663C32.4436 43.1267 32.3675 43.1871 32.2891 43.2494C31.4473 43.9465 30.8185 44.6544 30.4689 45.703C29.1306 45.6063 27.8402 45.3382 26.5322 45.053C26.4142 45.0273 26.2961 45.0017 26.1745 44.9752C20.5905 43.7538 15.1836 42.0063 9.86957 39.9077C9.75883 39.8644 9.64809 39.8211 9.534 39.7765C9.22207 39.6539 8.91113 39.5292 8.60042 39.4036C8.42412 39.3329 8.24783 39.2622 8.06619 39.1893C7.60695 38.9595 7.33782 38.7896 7.03143 38.3788C6.92457 37.9589 6.92457 37.9589 6.87808 37.4553C6.86911 37.3605 6.86015 37.2658 6.85091 37.1683C6.82209 36.8456 6.79819 36.5229 6.77508 36.1998C6.76189 36.0295 6.76189 36.0295 6.74843 35.8558C6.56694 33.4483 6.54445 31.0359 6.53802 28.6227C6.53706 28.3312 6.53532 28.0397 6.53356 27.7482C6.5066 21.997 6.8524 14.6115 10.9865 10.1073C11.0872 9.99328 11.1878 9.87923 11.2915 9.76172C16.6997 3.95399 30.3769 8.25445 35.7052 12.6353Z" fill="white"/>
<path d="M55.3156 26.6218C56.4391 27.69 56.6035 30.0118 56.8359 31.4942C56.8554 31.609 56.8748 31.7238 56.8948 31.8421C57.1395 33.5579 57.0256 35.3732 56.825 37.0869C56.8051 37.5045 56.8051 37.5045 57.0207 37.8451C57.2799 38.1379 57.2799 38.1379 57.7881 38.1501C58.279 38.1294 58.279 38.1294 58.5417 37.9166C59.9273 36.0318 58.9487 31.6534 58.6341 29.5597C58.6141 29.4296 58.6141 29.4296 58.5937 29.2969C58.801 29.2017 59.0086 29.1072 59.2163 29.0131C59.3896 28.9341 59.3896 28.9341 59.5665 28.8534C61.0069 28.2596 62.9221 28.398 64.349 28.957C66.1873 29.8523 67.2086 31.1304 67.8995 33.038C69.6948 38.3146 70.3795 43.5198 68.439 48.8012C68.2199 49.4212 68.093 49.9813 68.0208 50.6361C67.9137 51.2629 67.7787 51.5412 67.262 51.9167C67.0279 52.0576 66.7901 52.1926 66.5497 52.3224C66.4231 52.3959 66.2966 52.4693 66.1663 52.545C65.7932 52.7597 65.4166 52.967 65.039 53.1739C64.8591 53.2783 64.6794 53.3831 64.5 53.4886C59.4662 56.3368 53.526 57.9617 47.9278 59.2621C47.7582 59.3026 47.5885 59.3431 47.4137 59.3848C47.1773 59.4377 47.1773 59.4377 46.9362 59.4916C46.7272 59.5393 46.7272 59.5393 46.514 59.588C46.0867 59.6239 45.9101 59.561 45.5566 59.3262C45.2728 59.0224 45.2728 59.0224 44.9707 58.6396C44.8547 58.4938 44.7388 58.348 44.6193 58.1978C44.5575 58.1192 44.4956 58.0405 44.4318 57.9595C44.2362 57.7122 44.0379 57.4673 43.8389 57.2228C33.4026 44.3721 33.4026 44.3721 33.6496 37.3164C33.9553 34.3725 35.3954 32.5929 37.6465 30.7617C42.1863 27.2123 49.7833 22.9529 55.3156 26.6218ZM54.6386 39.6973C54.4583 40.1542 54.459 40.3498 54.6478 40.8051C55.4079 41.7613 56.4008 41.9884 57.5683 42.1875C58.5932 42.2883 59.4282 42.2181 60.3515 41.7481C60.6693 41.3795 60.6461 41.2012 60.6262 40.7135C60.5326 40.285 60.5326 40.285 60.272 40.036C59.7574 39.7611 59.278 39.822 58.7127 39.8529C57.812 39.8811 57.1724 39.8277 56.3656 39.39C55.7114 39.0601 55.1273 39.1725 54.6386 39.6973Z" fill="white"/>
<path d="M6.59161 40.8691C7.22356 40.9474 7.78906 41.1854 8.37288 41.427C8.58274 41.5125 8.7926 41.5979 9.00248 41.6832C9.11232 41.7281 9.22215 41.773 9.33532 41.8193C14.401 43.8852 19.5383 45.5843 24.8747 46.8018C24.9772 46.8252 25.0797 46.8486 25.1853 46.8728C26.6943 47.2149 28.2108 47.4957 29.7361 47.7539C29.9381 48.3052 29.8246 48.6825 29.6663 49.2376C29.6163 49.4135 29.5663 49.5894 29.5147 49.7706C29.4609 49.9541 29.4071 50.1375 29.3516 50.3265C29.276 50.5958 29.276 50.5958 29.1988 50.8704C28.6224 52.8667 27.9448 54.6381 26.2531 55.9239C24.5537 56.8617 22.2812 56.3908 20.4619 56.0944C20.3615 56.0783 20.2611 56.0622 20.1577 56.0456C15.2854 55.2583 8.7281 53.6742 5.38368 49.7074C4.58372 48.4681 4.45366 47.28 4.68731 45.8496C4.8194 45.333 4.98665 44.8327 5.16338 44.3298C5.2091 44.1964 5.25482 44.0629 5.30193 43.9254C6.23979 41.221 6.23979 41.221 6.59161 40.8691Z" fill="white"/>
<path d="M68.1152 53.6138C69.3657 54.7304 70.274 56.6552 70.459 58.3013C70.5025 59.6055 69.9711 60.5383 69.1498 61.5148C65.2083 65.7066 57.2298 67.7079 51.709 67.9692C50.4876 67.9179 49.519 67.4135 48.674 66.5359C47.5271 65.111 47.1274 63.4117 46.7285 61.6704C47.8093 61.3765 48.8899 61.0889 49.9804 60.8327C56.3155 59.3353 62.6278 57.1739 68.1152 53.6138Z" fill="white"/>
</svg>
